<svg width="16" height="16" viewBox="0 0 16 16" fill="none" xmlns="http://www.w3.org/2000/svg">
<path fill-rule="evenodd" clip-rule="evenodd" d="M9.5801 1.07655C9.88577 1.22638 10.0522 1.56328 9.98544 1.89709L9.16485 6H13.25C13.5436 6 13.8103 6.17136 13.9322 6.43847C14.0542 6.70558 14.0091 7.0193 13.8168 7.2412L7.31677 14.7412C7.09382 14.9984 6.72557 15.0733 6.4199 14.9235C6.11423 14.7736 5.9478 14.4367 6.01456 14.1029L6.83515 10H2.75C2.45636 10 2.18973 9.82864 2.06776 9.56153C1.94579 9.29442 1.99092 8.9807 2.18323 8.7588L8.68323 1.2588C8.90618 1.00155 9.27443 0.926722 9.5801 1.07655Z" fill="#09090B"/>
</svg>
