<svg width="32" height="32" viewBox="0 0 32 32" fill="none" xmlns="http://www.w3.org/2000/svg">
<path fill-rule="evenodd" clip-rule="evenodd" d="M19.487 1.45992C19.8886 1.68384 20.0858 2.15282 19.9648 2.59646L17.3093 12.3333H27C27.3982 12.3333 27.7585 12.5696 27.9172 12.9348C28.0759 13.3 28.0028 13.7246 27.7311 14.0157L13.7311 29.0157C13.4173 29.3518 12.9147 29.4307 12.5131 29.2068C12.1114 28.9829 11.9143 28.5139 12.0353 28.0702L14.6908 18.3333H5.00002C4.60183 18.3333 4.24158 18.0971 4.08287 17.7319C3.92417 17.3667 3.99727 16.9421 4.26897 16.651L18.269 1.65103C18.5827 1.31485 19.0853 1.23599 19.487 1.45992Z" fill="#09090B"/>
</svg>
