<svg width="24" height="24" viewBox="0 0 24 24" fill="none" xmlns="http://www.w3.org/2000/svg">
<path fill-rule="evenodd" clip-rule="evenodd" d="M14.6152 1.09495C14.9165 1.26289 15.0643 1.61463 14.9736 1.94736L12.982 9.25003H20.25C20.5487 9.25003 20.8189 9.42721 20.9379 9.70111C21.0569 9.97502 21.0021 10.2934 20.7983 10.5118L10.2983 21.7618C10.063 22.0139 9.68604 22.073 9.38481 21.9051C9.08357 21.7372 8.9357 21.3854 9.02644 21.0527L11.0181 13.75H3.75002C3.45137 13.75 3.18118 13.5728 3.06216 13.2989C2.94313 13.025 2.99795 12.7066 3.20173 12.4883L13.7017 1.23829C13.937 0.986154 14.314 0.927009 14.6152 1.09495Z" fill="#09090B"/>
</svg>
